<svg xmlns="http://www.w3.org/2000/svg" width="256" height="256"><path fill-opacity=".016" d="M0 128.004v128.004l128.25-.254 128.25-.254.254-127.75L257.008 0H0v128.004m.485.496c0 70.4.119 99.053.265 63.672.146-35.38.146-92.98 0-128C.604 29.153.485 58.1.485 128.5" fill="#1976D2" fill-rule="evenodd"/><path fill-opacity=".095" d="M59 44.385c0 .762 1.031 2.06 2.29 2.885C63.525 48.735 72 59.059 72 60.318c0 .348-1.154.194-2.565-.343-3.61-1.372-6.435-1.211-6.435.367 0 .738 1.912 1.902 4.25 2.586 7.161 2.097 8.513 3.496 10.951 11.327 3.943 12.669 3.005 31.561-2.39 48.133-11.254 34.57-41.007 70.786-68.924 83.896C.29 209.382-2.013 212 1.859 212c2.266 0 11.686-4.94 19.141-10.038 30.262-20.694 56.631-60.751 62.027-94.223 1.567-9.721.784-28.544-1.441-34.645-.884-2.423-1.435-4.578-1.225-4.788.211-.211 3.703 1.337 7.761 3.44 35.531 18.41 64.13 49.85 73.457 80.754 2.005 6.646 2.624 28.134 1.057 36.75-.731 4.022-.622 4.75.712 4.75 1.014 0 1.964-1.512 2.67-4.25 3.9-15.14 9.579-25.655 35.082-64.956 7.033-10.838 16.469-26.363 20.969-34.5 13.981-25.28 22.25-36.83 30.081-42.012 3.843-2.543 5.108-5.282 2.44-5.282-2.647 0-11.23 7.757-16.86 15.237-3.091 4.108-9.538 14.397-14.327 22.866-10.759 19.028-16.025 27.665-30.291 49.685-6.16 9.509-14.279 22.662-18.042 29.23l-6.841 11.942-.704-6.573c-1.575-14.706-6.838-28.165-16.943-43.327-14.648-21.978-39.201-43.003-64.383-55.129-7.182-3.458-9.317-5.003-10.823-7.831-1.032-1.938-4.515-6.353-7.741-9.812C61.956 43.199 59 41.52 59 44.385" fill="#1976D2" fill-rule="evenodd"/><path fill-opacity=".37" d="M59.642 43.691c-.38.38 1.278 2.743 3.685 5.25 2.406 2.507 5.679 6.323 7.273 8.48l2.898 3.921-2.999-.812c-8.346-2.26-9.128-.031-.999 2.846l6 2.124 2.472 7c2.175 6.159 2.474 8.683 2.485 21 .012 12.254-.333 15.247-2.759 24-9.877 35.623-39.68 73.382-69.948 88.621C.245 209.899-1.89 212 1.774 212c.976 0 5.346-2.035 9.711-4.523 32.449-18.492 59.959-54.889 69.637-92.135 3.035-11.678 3.315-31.797.568-40.699-.995-3.222-1.592-6.074-1.328-6.338.793-.794 17.81 8.376 25.926 13.972 22.503 15.512 41.658 37.095 50.783 57.22 6.436 14.194 9.047 30.508 6.884 43.003-1.584 9.145-1.643 10.397-.496 10.524.528.059 2.144-3.691 3.59-8.332 3.778-12.117 10.587-24.236 33.258-59.192 7.135-11 17.219-27.627 22.41-36.949 5.191-9.322 11.716-20.244 14.501-24.272C242.053 57.285 253.066 46 255.057 46c.519 0 .943-.675.943-1.5 0-5.399-13.449 6.768-22.659 20.5-2.767 4.125-8.76 14.25-13.318 22.5s-14.758 25.004-22.667 37.232c-14 21.644-28.255 45.538-28.456 47.698-.204 2.197-1.704-4.067-1.8-7.52-.166-5.963-3.802-18.48-7.925-27.277-13.042-27.832-40.964-54.769-72.873-70.303-8.06-3.924-9.538-5.057-11.935-9.154C71.679 53.583 62.372 43 61.022 43c-.379 0-1 .311-1.38.691" fill="#1976D2" fill-rule="evenodd"/><path fill-opacity=".252" d="M60 44.236c0 .754 1.631 2.922 3.624 4.818C67.535 52.772 73 59.798 73 61.106c0 .443-1.87.145-4.156-.661-4.095-1.445-6.103-1.234-4.277.449.513.473 3.241 1.609 6.063 2.523C76.146 65.206 77 66.523 80.09 78c1.77 6.575 1.453 25.109-.582 34-8.63 37.706-40.919 79.56-73.758 95.607C.396 210.223-1.486 212 1.097 212c.604 0 4.541-1.8 8.75-4.001 36.509-19.086 68.993-66.3 73.131-106.29 1.021-9.875-.064-22.867-2.483-29.725-.834-2.363-1.316-4.496-1.072-4.74.874-.874 20.251 9.969 29.577 16.551 13.518 9.541 31.085 27.333 39.39 39.895 7.404 11.2 12.937 23.643 15.144 34.056 1.808 8.532 1.841 22.028.072 29.547-2.034 8.641.279 6.586 2.932-2.606 2.799-9.697 10.781-24.066 29.269-52.687 7.994-12.375 17.338-27.45 20.765-33.5 19.658-34.703 25.662-43.454 34.223-49.876 2.842-2.132 4.923-4.271 4.625-4.753-1.55-2.508-12.671 7.89-20.175 18.864-3.296 4.821-10.257 16.415-15.468 25.765-5.211 9.35-14.314 24.386-20.228 33.413-12.249 18.698-26.418 41.999-29.18 47.985-1.028 2.228-2.142 4.062-2.475 4.076-.333.014-.853-3.236-1.156-7.224-1.59-20.963-12.707-43.067-31.724-63.078-14.625-15.389-31.985-28.135-49.296-36.193-4.752-2.212-8.974-4.867-9.507-5.979C72.787 54.362 60 40.743 60 44.236" fill="#1976D2" fill-rule="evenodd"/></svg>